<?xml version="1.0" encoding="utf-8"?>
<!-- Generator: Adobe Illustrator 20.1.0, SVG Export Plug-In . SVG Version: 6.00 Build 0)  -->
<svg version="1.1" id="Ebene_1" xmlns="http://www.w3.org/2000/svg" xmlns:xlink="http://www.w3.org/1999/xlink" x="0px" y="0px"
	 viewBox="0 0 197.5 35.75" enable-background="new 0 0 197.5 35.75" xml:space="preserve">
<path fill="#004178" d="M108.673,12.1l-0.298-0.328h-8.399c-4.347,0.047-9.781,0.085-14.424,3.581
	c-3.504,2.603-5.386,6.79-5.386,10.535c0,1.906,0.543,3.617,1.331,4.755c1.387,2.03,3.903,3.129,6.768,3.129
	c1.629,0,3.211-0.324,4.694-0.896c1.182-0.446,1.24-0.576,2.081-1.189l-0.362,1.554l0.244,0.246l7.332-0.162l0.344-0.203
	c1.641-5.476,1.918-6.669,3.798-13.26L108.673,12.1z M96.221,27.874c-0.892,0.614-1.928,1.303-3.757,1.303
	c-1.182,0-3.704-0.487-3.704-4.025c0-2.438,1.585-7.56,6.919-8.7c1.233-0.243,2.752-0.206,3.986-0.163L96.221,27.874z M192.26,4.833
	v3.686h0.654V6.867h0.231c0.472,0.006,0.731,0.05,0.816,0.574l0.094,0.568c0.058,0.317,0.124,0.444,0.156,0.509h0.749
	c-0.17-0.328-0.206-0.538-0.283-1.095c-0.084-0.499-0.232-0.638-0.534-0.769c0.478-0.124,0.763-0.413,0.763-0.881
	c0-0.347-0.199-0.711-0.591-0.848c-0.226-0.082-0.48-0.094-0.859-0.094H192.26z M192.924,5.344h0.415c0.435,0,0.515,0,0.652,0.048
	c0.202,0.099,0.258,0.303,0.258,0.434c0,0.522-0.53,0.518-0.783,0.518h-0.543V5.344z M196.414,6.71
	c0.011-1.598-1.229-2.934-2.925-2.934c-1.575,0-2.906,1.238-2.906,2.929c0,1.719,1.39,2.906,2.906,2.906
	C195.138,9.611,196.404,8.326,196.414,6.71 M196.153,6.71c-0.005,1.471-1.155,2.639-2.657,2.639c-1.459,0-2.654-1.16-2.654-2.645
	c0-1.469,1.165-2.668,2.663-2.668C195.021,4.037,196.16,5.252,196.153,6.71 M12.106,26.535l-1.679,6.589l-0.298,0.243L1.734,33.49
	l-0.248-0.243l1.677-5.653l2.275-7.892C7.167,13.565,7.661,11.61,9.292,4.9l0.346-0.242h12.35l8.398-0.119l0.246,0.244l-1.531,4.633
	l-0.393,0.246H16.701l-1.88,7.031l11.116-0.24l0.248,0.284c-0.889,2.154-1.088,2.726-1.682,4.592l-0.344,0.246h-10.77L12.106,26.535
	z M105.805,31.862l-0.146-0.366l1.531-4.351l0.442-0.122c0.937,0.85,3.062,2.643,6.864,2.643c3.804,0,4.25-1.793,4.25-2.358
	c0-1.386-1.631-2.032-3.36-2.688l-1.086-0.446c-2.619-1.096-5.138-2.358-5.138-5.571c0-1.013,0.449-7.319,11.315-7.319
	c2.763,0,5.479,0.448,8.395,1.628l0.199,0.363c-0.793,2.116-0.94,2.485-1.486,4.355l-0.493,0.078
	c-0.444-0.406-0.887-0.852-1.483-1.177c-1.233-0.77-3.062-1.18-4.445-1.18c-2.667,0-3.802,1.099-3.802,2.073
	c0,1.224,1.73,1.91,3.017,2.4l1.133,0.446c2.124,0.897,5.677,2.32,5.677,5.938c0,1.951-1.233,7.687-12.1,7.687
	C110.05,33.898,107.382,32.633,105.805,31.862 M154.755,24.298c0.395-1.339,0.642-2.724,0.642-4.065c0-2.442-0.593-4.717-3.11-6.587
	c-2.32-1.708-5.484-2.279-8.597-2.279c-12.842,0-15.259,9.803-15.264,13.543c0,3.053,1.039,5.286,3.214,6.83
	c2.366,1.709,5.825,2.111,8.392,2.111c3.757,0,6.967-0.649,9.781-2.556C152.432,29.543,153.963,26.981,154.755,24.298
	 M146.652,22.751c-0.937,3.621-2.026,4.679-2.569,5.249c-0.839,0.853-2.124,1.582-3.607,1.582c-1.625,0-2.962-0.649-3.507-1.951
	c-0.144-0.284-0.294-0.81-0.294-1.789c0-1.87,1.035-6.506,2.917-8.497c0.538-0.527,1.729-1.665,4.049-1.665
	c2.912,0,3.504,2.11,3.504,3.614C147.147,20.561,146.9,21.737,146.652,22.751 M51.122,33.404l4.052-0.037h3.408
	c6.026-0.04,11.707-0.12,16.152-4.025c3.212-2.846,4.692-6.869,4.692-10.005c0.003-5.245-3.752-8.008-8.196-8.008
	c-2.911,0-4.597,0.813-6.57,1.79l2.272-7.605l1.336-4.269l-0.295-0.284l-8.295,1.152L59.327,2.4c-1.33,6.26-1.882,7.923-3.993,15.41
	l-2.432,8.32l-2.028,6.994L51.122,33.404z M63.524,17.223c0.986-0.53,2.026-1.099,3.559-1.099c2.122,0,3.948,1.182,3.948,3.782
	c0,2.972-1.73,5.937-3.903,7.483c-2.271,1.545-4.492,1.545-6.323,1.545l-0.594-0.039L63.524,17.223z M54.053,12.1l-0.295-0.328
	H45.36c-4.347,0.047-9.781,0.085-14.425,3.581c-3.506,2.603-5.385,6.79-5.385,10.535c0,1.906,0.546,3.617,1.331,4.755
	c1.384,2.03,3.906,3.129,6.771,3.129c1.632,0,3.21-0.324,4.692-0.896c1.182-0.446,1.241-0.576,2.085-1.189l-0.367,1.554l0.244,0.246
	l7.332-0.162l0.344-0.203c1.644-5.476,1.918-6.669,3.798-13.26L54.053,12.1z M41.604,27.874c-0.889,0.614-1.928,1.303-3.754,1.303
	c-1.184,0-3.706-0.487-3.706-4.025c0.003-2.438,1.585-7.56,6.918-8.7c1.234-0.243,2.754-0.206,3.987-0.163L41.604,27.874z
	 M187.459,28.774l-1.481,4.223l-0.393,0.33c-1.585,0.246-2.769,0.446-4.448,0.446c-4.246,0-7.461-1.099-7.461-4.758
	c0.007-1.705,0.941-4.757,1.633-7.033l1.63-5.57l-3.314,0.08l-0.271-0.291l1.413-4.141l0.342-0.202h3.12l1.429-5.245l0.349-0.284
	c3.701-0.692,4.689-0.894,8.102-1.708l0.294,0.243l-1.088,3.376l-1.088,3.699l5.041-0.081l0.192,0.284
	c-0.686,1.71-0.885,2.153-1.527,4.068l-0.396,0.282l-4.547-0.08l-2.072,7.114c-0.298,0.896-0.94,3.168-0.94,3.862
	c0,1.302,1.282,1.67,2.316,1.67c1.289,0,1.981-0.244,2.87-0.491L187.459,28.774z M171.363,16.452h-3.472
	c-0.246,0.936-0.541,1.91-0.784,2.843c-0.745,2.724-1.735,7.2-3.264,13.785l-0.396,0.247l-7.903,0.163l-0.251-0.243l1.883-6.751
	l2.715-10.084l-3.754,0.08l-0.248-0.282l1.287-4.15l0.444-0.24l3.408,0.038l0.594-2.239c0.789-3.007,1.334-4.998,2.964-6.463
	c2.173-1.994,5.283-2.278,7.605-2.278c1.977,0,3.261,0.246,4.943,0.53l0.145,0.328L175.798,6l-0.489,0.206
	c-0.696-0.121-1.389-0.287-2.131-0.287c-2.514,0-2.862,1.302-3.799,4.515l-0.349,1.463l3.875-0.041l0.189,0.286l-1.387,4.068
	L171.363,16.452z"/>
</svg>
